X Lossless Decoder version 20110417 (131.0)

XLD extraction logfile from 2011-04-30 22:08:31 +0900

Gomes The Hitman / 明日は今日と同じ未来

Used drive : HL-DT-ST BD-RE  BH10NS30 (revision EL00)

Ripper mode             : CDParanoia III 10.2
Disable audio cache     : OK for the drive with a cache less than 2750KiB
Make use of C2 pointers : NO
Read offset correction  : 667
Max retry count         : 100
Gap status              : Analyzed, Appended

TOC of the extracted CD
     Track |   Start  |  Length  | Start sector | End sector 
    ---------------------------------------------------------
        1  | 00:00:00 | 05:03:40 |         0    |    22764   
        2  | 05:03:40 | 04:19:62 |     22765    |    42251   
        3  | 11:55:27 | 06:02:21 |     53652    |    80822   

AccurateRip Summary
    Disc not found in AccurateRip DB.

All Tracks
    Filename : /Users/angelicalbite/Music/flac/明日は今日と同じ未来.flac
    CRC32 hash             : 3B6C116E
    CRC32 hash (skip zero) : 8323A585
    Statistics
        Read error                           : 0
        Skipped (treated as error)           : 0
        Edge jitter error (maybe fixed)      : 0
        Atom jitter error (maybe fixed)      : 0
        Drift error (maybe fixed)            : 0
        Dropped bytes error (maybe fixed)    : 0
        Duplicated bytes error (maybe fixed) : 0

Track 01
    Pre-gap length : 00:02:00

    CRC32 hash             : 5B797FF9
    CRC32 hash (skip zero) : 021A715D
    AccurateRip signature  : BF1ECBE3
        ->Track not present in AccurateRip database.
    Statistics
        Read error                           : 0
        Skipped (treated as error)           : 0
        Edge jitter error (maybe fixed)      : 0
        Atom jitter error (maybe fixed)      : 0
        Drift error (maybe fixed)            : 0
        Dropped bytes error (maybe fixed)    : 0
        Duplicated bytes error (maybe fixed) : 0

Track 02
    Pre-gap length : 00:01:30

    CRC32 hash             : A5D649D5
    CRC32 hash (skip zero) : 73AA3168
    AccurateRip signature  : 08272D53
        ->Track not present in AccurateRip database.
    Statistics
        Read error                           : 0
        Skipped (treated as error)           : 0
        Edge jitter error (maybe fixed)      : 0
        Atom jitter error (maybe fixed)      : 0
        Drift error (maybe fixed)            : 0
        Dropped bytes error (maybe fixed)    : 0
        Duplicated bytes error (maybe fixed) : 0

No errors occurred

End of status report
